PathFileType	4	(X/Y/Z)	C:\Users\Basilio\Documents\Thesis Gigler\squatting_fais\c3dfiles\019\SLS_front_pre3\markers_experimental.trc
DataRate	CameraRate	NumFrames	NumMarkers	Units	OrigDataRate	OrigDataStartFrame	OrigNumFrames
200.000000	200.000000	4	59	mm	200.000000	822	1316
Frame#	Time	LBHD			RBHD			C7			T10			LSHO			LUUPA			LMUPA			LDUPA			LLEP			LMEP			LRAD			LUL			LRFIN			RSHO			RUPA1			RMUPA			RDUPA			RLEP			RMEP			RRAD			RUL			RUFIN			LASI			RASI			USACR			LSACR			RSACR			LTHI1			LTHI2			LTHI3			LTHI4			LLFC			LTIB1			LTIB2			LTIB3			LTIB4			LLMAL			LMMAL			LHEE			LMT1			LMT2			LMT5			RTHI			RTHI2			RTHI3			RTHI4			RLFC			RTIB1			RTIB2			RTIB3			RTIB4			RLMAL			RMMAL			RHEE			RMT1			RMT2			RMT5			FHD			CLAV			
		X1	Y1	Z1	X2	Y2	Z2	X3	Y3	Z3	X4	Y4	Z4	X5	Y5	Z5	X6	Y6	Z6	X7	Y7	Z7	X8	Y8	Z8	X9	Y9	Z9	X10	Y10	Z10	X11	Y11	Z11	X12	Y12	Z12	X13	Y13	Z13	X14	Y14	Z14	X15	Y15	Z15	X16	Y16	Z16	X17	Y17	Z17	X18	Y18	Z18	X19	Y19	Z19	X20	Y20	Z20	X21	Y21	Z21	X22	Y22	Z22	X23	Y23	Z23	X24	Y24	Z24	X25	Y25	Z25	X26	Y26	Z26	X27	Y27	Z27	X28	Y28	Z28	X29	Y29	Z29	X30	Y30	Z30	X31	Y31	Z31	X32	Y32	Z32	X33	Y33	Z33	X34	Y34	Z34	X35	Y35	Z35	X36	Y36	Z36	X37	Y37	Z37	X38	Y38	Z38	X39	Y39	Z39	X40	Y40	Z40	X41	Y41	Z41	X42	Y42	Z42	X43	Y43	Z43	X44	Y44	Z44	X45	Y45	Z45	X46	Y46	Z46	X47	Y47	Z47	X48	Y48	Z48	X49	Y49	Z49	X50	Y50	Z50	X51	Y51	Z51	X52	Y52	Z52	X53	Y53	Z53	X54	Y54	Z54	X55	Y55	Z55	X56	Y56	Z56	X57	Y57	Z57	X58	Y58	Z58	X59	Y59	Z59	

823	4.11	-314.9020996093751	1349.103515625	-772.4506835937502	-318.6375427246094	1342.966796875	-632.5266113281251	-369.4078063964844	1210.024047851563	-692.4743652343751	-538.0068969726564	979.0279541015627	-702.4580078125001	-294.5907592773438	1209.987182617188	-810.2251586914065	-178.5511169433594	1196.801513671875	-863.2603759765627	-152.3279876708985	1177.831665039063	-823.0412597656252	-113.3532409667969	1194.510131835938	-865.717468261719	-42.41677474975587	1177.7431640625	-903.607116699219	-42.83816146850587	1118.2158203125	-902.8298339843752	210.9812622070313	1168.299682617188	-830.3873291015627	204.1790618896485	1184.364990234375	-896.0405883789065	279.7321472167969	1189.88525390625	-828.2376098632815	-280.3932189941407	1203.752197265625	-593.5236206054689	-173.8620300292969	1163.856323242188	-482.7906799316407	-151.8736724853516	1184.266845703125	-522.1029663085939	-104.8059692382813	1162.407470703125	-483.7074279785157	-27.6906909942627	1163.031860351563	-497.3157348632814	-33.00080490112305	1103.037963867188	-500.8537597656251	203.0563201904297	1183.2490234375	-600.9528808593751	218.9074859619141	1195.249389648438	-537.5072631835939	286.0358581542969	1204.583374023438	-610.3505249023439	-474.6635742187501	764.7795410156251	-826.9233398437502	-468.8292846679689	747.7120971679689	-622.8385620117189	-610.3972778320314	840.1682128906252	-717.2788085937501	-623.8272094726564	810.8543701171877	-744.0288085937501	-623.0736083984376	810.111511230469	-688.6431274414064	-382.9552307128907	599.1890869140626	-926.4307250976565	-297.7499084472657	596.5441284179689	-923.047058105469	-280.4681701660157	636.8006591796876	-904.2066650390627	-261.7453308105469	547.0030517578126	-918.691833496094	-181.3804931640625	493.0357666015626	-908.1843872070315	-44.25503158569337	432.0176086425782	-885.262878417969	-55.82471847534181	363.0600891113282	-939.3306274414065	-26.27392768859864	386.128387451172	-916.1639404296877	31.84892272949219	328.4566040039063	-886.9817504882815	72.78124237060548	192.4117431640626	-918.7685546875002	86.85137176513673	206.5272521972657	-835.6243896484377	39.30716705322266	131.1651763916016	-864.9841918945315	233.2733001708985	204.5923156738282	-844.0526123046877	240.9433593750001	204.8659667968751	-883.0759277343752	213.4449920654297	160.4090118408203	-932.7200927734377	-425.714080810547	595.5075683593751	-554.2791137695314	-360.1814270019532	602.1318969726564	-564.4973144531251	-348.4472961425782	632.5905151367189	-580.9406127929689	-305.0782165527344	540.2487792968751	-568.8477172851564	-203.5285339355469	433.7597656250001	-618.2272949218751	-214.4688720703126	278.7408752441407	-701.7531738281251	-294.5538635253907	220.4851226806641	-649.9954833984376	-266.9899902343751	211.0469207763672	-687.3928833007814	-294.8610534667969	185.2872467041016	-732.9971923828126	-383.1380310058594	122.4585189819336	-689.8393554687501	-365.8435058593751	134.7064666748047	-768.0423583984377	-455.3546447753907	106.1483383178711	-749.4954833984376	-256.9340209960938	58.96688079833986	-773.4698486328127	-248.7820892333985	54.30518341064455	-731.4987182617189	-293.0487976074219	48.05391693115236	-673.7056884765626	-184.8260955810547	1374.132690429688	-629.2709350585939	-174.0681610107422	1156.618896484375	-725.3062133789064	
824	4.115	-315.1627197265626	1349.992919921875	-772.4563598632815	-318.7338562011719	1343.769287109375	-632.5842895507814	-369.4372253417969	1210.730834960938	-692.4890136718751	-537.9757080078126	979.748718261719	-702.4650878906251	-294.5073852539063	1210.950439453125	-809.9785766601565	-178.6213073730469	1197.634887695313	-863.2490844726565	-151.7059936523438	1179.545043945313	-823.005554199219	-113.4683990478516	1195.436889648438	-865.7657470703127	-42.53951644897462	1178.596313476563	-903.646423339844	-42.97761154174805	1119.14208984375	-902.7873535156252	210.9001617431641	1169.41943359375	-830.297546386719	203.6252899169922	1185.31591796875	-896.2930297851565	279.4830017089844	1190.869384765625	-828.2762451171877	-280.5425415039063	1204.907592773438	-593.4617309570314	-174.1100463867188	1164.817749023438	-482.7816162109376	-152.2060699462891	1185.20751953125	-522.1184082031251	-105.0695724487305	1163.368774414063	-483.7370910644532	-27.72727584838868	1163.924072265625	-497.2659912109376	-33.14524078369141	1104.05908203125	-500.8720092773439	203.3097534179688	1184.4970703125	-600.9556884765626	215.0254974365235	1197.597290039063	-535.2756958007814	286.2941589355469	1205.37255859375	-610.4060058593751	-474.5685119628907	765.5417480468751	-826.950866699219	-468.820526123047	748.2409057617189	-622.8402709960939	-610.3466796875001	840.9837646484377	-717.1530761718751	-624.0475463867189	811.6138305664065	-743.9968872070314	-623.0548706054689	810.8286743164065	-688.5198364257814	-382.6438598632813	599.7920532226564	-926.377624511719	-297.6542968750001	597.2324218750001	-923.0039062500002	-280.3158569335938	637.4613037109376	-904.0346679687502	-261.8095703125001	547.6610717773439	-918.671325683594	-181.3740539550782	493.6414184570314	-908.1264648437502	-44.40216064453126	432.635711669922	-885.0960693359377	-56.24231338500978	363.6373901367188	-938.967956542969	-26.19454002380372	386.5187377929689	-916.0715332031252	31.7097282409668	328.9464111328126	-886.8742675781252	72.55174255371095	192.9548339843751	-918.481872558594	86.66587829589845	207.0132293701172	-835.402770996094	39.12609481811524	131.7140197753907	-864.6336059570315	233.0503692626954	205.0836334228516	-843.9138183593752	240.6746826171876	205.2334594726563	-883.3557128906252	213.3373565673829	161.2354888916016	-932.501892089844	-425.7106018066407	596.0241088867189	-554.2919921875001	-360.1155090332032	602.4517211914064	-564.5615844726564	-348.3659973144532	633.0444946289064	-580.9921264648439	-305.1467590332032	540.4826049804689	-568.9355468750001	-203.7320709228516	434.033660888672	-618.2274169921876	-214.5371246337891	278.8199157714844	-701.6962280273439	-294.7242431640626	220.6090850830079	-649.9256591796876	-266.9882812500001	211.1048889160157	-687.4288330078126	-294.9265136718751	185.3055267333985	-732.9828491210939	-383.1476745605469	122.4627685546875	-689.8314208984376	-366.0649414062501	134.788803100586	-768.0350341796877	-455.5435180664064	106.0515060424805	-749.4696655273439	-256.8920593261719	59.01575469970705	-773.427185058594	-248.7968292236329	54.29525375366212	-731.5079956054689	-293.0555419921876	48.05944442749025	-673.6972656250001	-185.0128021240235	1374.922119140625	-629.1544189453126	-174.4404296875	1157.403198242188	-725.3105468750001	
825	4.12	-315.1684265136719	1350.811401367188	-772.5608520507815	-319.0736694335938	1344.747924804688	-632.5231323242189	-374.2279357910157	1213.293823242188	-695.8471679687501	-538.0709838867189	980.5079345703127	-702.3987426757814	-294.7458496093751	1211.78857421875	-810.1448974609377	-178.9243774414063	1198.394165039063	-863.457946777344	-151.9769287109375	1179.760375976563	-822.8203125000002	-113.600570678711	1196.369873046875	-865.7355957031252	-42.6059684753418	1179.56103515625	-903.6097412109377	-43.0961036682129	1120.07080078125	-902.8164062500002	210.6467590332032	1170.550170898438	-830.3101196289065	202.8785858154297	1186.294799804688	-896.980407714844	279.4230957031251	1191.666015625	-828.056335449219	-279.5226440429688	1205.199462890625	-593.9408569335939	-174.4000854492188	1165.91748046875	-482.855682373047	-152.4629058837891	1186.176391601563	-522.1368408203126	-105.1633071899414	1164.298095703125	-483.626922607422	-28.0302963256836	1164.969604492188	-497.3867492675782	-33.29962539672852	1104.95556640625	-500.8656311035157	203.1655883789063	1185.179443359375	-601.4430541992189	216.7579803466797	1197.864013671875	-536.8117065429689	285.4567260742188	1206.375854492188	-610.4579467773439	-474.5969238281251	766.2718505859376	-826.9399414062502	-468.6908569335939	748.8243408203126	-622.7873535156251	-610.2667236328126	841.6130981445315	-717.1176757812501	-623.6281738281251	812.2598266601565	-744.0121459960939	-622.8801879882814	811.4067993164065	-688.3967895507814	-382.6588439941407	600.5115966796876	-926.349060058594	-297.6088562011719	597.9797363281251	-922.9522094726565	-280.3023681640626	638.1230468750001	-903.9960937500002	-261.7459716796876	548.3080444335939	-918.6662597656252	-181.53271484375	494.3345336914064	-908.0451660156252	-44.51255416870118	433.2108764648439	-885.0445556640627	-56.2970314025879	364.1822204589844	-938.8033447265627	-26.24402809143067	387.0374755859376	-915.926208496094	31.50286102294923	329.4481201171876	-886.7412719726565	72.39151763916017	193.3233032226563	-918.2742919921877	86.59391021728517	207.3602752685547	-835.2236328125002	38.77764892578126	132.1626129150391	-864.2888793945315	232.9194946289063	205.6252746582032	-843.8420410156252	241.0714263916016	206.1311798095704	-882.501892089844	213.296371459961	161.6872253417969	-932.234802246094	-425.6616516113282	596.5509033203126	-554.3972778320314	-359.9950561523438	602.8547973632814	-564.5943603515626	-347.4319763183594	633.2076416015626	-580.7202148437501	-305.2297363281251	540.8511962890626	-568.9525756835939	-203.9363098144532	434.182342529297	-618.3695068359376	-214.7364501953126	278.9221801757813	-701.6994628906251	-294.8878479003907	220.6857299804688	-649.9509887695314	-267.0410766601563	211.1046142578126	-687.4213256835939	-294.9397888183594	185.3290405273438	-732.9462280273439	-383.1742248535157	122.4369430541992	-689.7946166992189	-365.7649536132813	134.5955352783203	-767.9863281250001	-455.274871826172	106.1962509155274	-749.4899291992189	-256.9330749511719	59.05964279174806	-773.4500122070315	-248.809066772461	54.33588790893556	-731.5474243164064	-293.0721435546876	48.07641220092775	-673.7033691406251	-185.2936401367188	1375.947875976563	-629.2156372070314	-178.5916290283203	1156.849243164063	-726.2482299804689	
826	4.125	-314.8516540527344	1351.4658203125	-772.5534667968752	-319.1322326660157	1345.26611328125	-632.7015380859376	-369.7780456542969	1212.677490234375	-692.4235839843751	-538.0427856445314	981.2056274414065	-702.3641357421876	-294.9320678710938	1212.623657226563	-810.086120605469	-178.8835144042969	1199.404663085938	-863.3228759765627	-151.8769836425782	1181.467895507813	-822.9410400390627	-113.7230911254883	1197.21826171875	-865.7658691406252	-42.80436325073243	1180.484252929688	-903.5739746093752	-43.13154602050782	1120.871459960938	-902.8408203125002	210.4672393798829	1171.275390625	-830.217956542969	202.8114776611329	1187.252563476563	-897.0321044921877	279.3243713378907	1192.545288085938	-827.9013671875002	-280.8186035156251	1206.3740234375	-593.5681762695314	-174.4552612304688	1166.692260742188	-482.7380676269532	-152.5971984863282	1187.152587890625	-522.1933593750001	-105.2358474731446	1165.266357421875	-483.7229309082032	-28.08673095703126	1165.89990234375	-497.3393554687501	-33.30226135253907	1106.042602539063	-500.8513793945314	202.9932250976563	1186.25244140625	-601.2202758789064	216.9790954589844	1198.93701171875	-537.1025390625001	285.9849853515626	1207.225463867188	-610.7274780273439	-474.4892578125001	767.0045776367189	-826.8656005859377	-468.527801513672	749.4315795898439	-622.7304077148439	-610.1561889648439	842.303649902344	-717.1482543945314	-623.5611572265626	812.962829589844	-743.9620971679689	-622.7474365234376	812.1218261718752	-688.4040527343751	-382.6688842773438	601.3261108398439	-926.4028320312502	-297.5315246582032	598.6409912109376	-922.8238525390627	-280.1867370605469	638.7550659179689	-903.944274902344	-261.7486572265626	549.0324707031251	-918.6257934570315	-181.6329498291016	494.9939575195314	-908.010681152344	-44.55833053588868	433.776824951172	-884.9597778320315	-56.23879241943361	364.7063903808594	-938.9621582031252	-26.34538841247559	387.4639282226564	-915.6452636718752	31.30450248718262	329.9446105957032	-886.6154785156252	72.11875152587892	193.6296539306641	-918.1239013671877	86.40296936035158	207.7948913574219	-834.9575195312502	38.81881332397462	132.4269104003907	-864.1072387695315	232.7024841308594	206.2006835937501	-843.7700805664065	241.3823852539063	206.5989074707032	-881.9703369140627	213.2281494140626	162.4410858154297	-931.9336547851565	-425.607635498047	597.1113281250001	-554.3297729492189	-360.0450134277344	603.3730468750001	-564.6759643554689	-347.3354797363282	633.6951293945314	-580.7820434570314	-305.2935485839844	541.1968383789064	-569.0415039062501	-204.1505584716797	434.412322998047	-618.5123901367189	-214.8754882812501	278.9965820312501	-701.6941528320314	-294.9658508300782	220.8545379638672	-650.0261230468751	-267.1867675781251	211.158432006836	-687.3778076171876	-295.0077514648438	185.4037170410157	-732.9305419921876	-383.2757568359376	122.469711303711	-689.7987670898439	-365.8926086425782	134.6659088134766	-768.023864746094	-455.4842834472657	106.0649719238282	-749.4689941406251	-256.9155883789063	59.05748748779298	-773.4746093750002	-248.8051452636719	54.34018325805665	-731.3939208984376	-293.0024108886719	48.04841232299806	-673.6892700195314	-185.4935607910157	1376.91650390625	-629.2818603515626	-175.3045196533203	1158.68310546875	-724.3264770507814	
